<?xml version="1.0" standalone="no"?>
<!DOCTYPE svg PUBLIC "-//W3C//DTD SVG 20010904//EN"
 "http://www.w3.org/TR/2001/REC-SVG-20010904/DTD/svg10.dtd">
<svg version="1.0" xmlns="http://www.w3.org/2000/svg"
 width="700.000000pt" height="700.000000pt" viewBox="0 0 700.000000 700.000000"
 preserveAspectRatio="xMidYMid meet">
<metadata>
Created by potrace 1.11, written by Peter Selinger 2001-2013
</metadata>
<g transform="translate(0.000000,700.000000) scale(0.100000,-0.100000)"
fill="#000000" stroke="none">
<path d="M5305 6329 c-223 -54 -426 -226 -595 -503 -77 -127 -143 -285 -166
-396 -39 -193 -18 -469 53 -694 106 -338 282 -546 558 -657 26 -10 27 -13 10
-16 -175 -37 -306 -92 -406 -169 -99 -76 -157 -145 -221 -261 -64 -118 -144
-221 -209 -273 -71 -56 -178 -92 -141 -48 18 22 39 123 40 187 0 91 -23 169
-77 256 -33 54 -175 193 -242 238 -107 71 -141 81 -269 81 -227 1 -395 -33
-568 -114 -196 -92 -349 -241 -508 -495 -102 -163 -167 -322 -285 -695 -142
-449 -265 -690 -445 -866 -104 -102 -172 -132 -439 -199 -395 -97 -503 -103
-699 -35 -191 66 -317 193 -356 359 -12 52 -9 277 4 340 59 274 186 391 419
389 122 -2 215 -51 266 -139 l27 -47 49 25 c59 29 101 66 122 108 24 46 26
153 3 216 -24 66 -50 93 -119 126 -51 24 -67 27 -181 27 -163 1 -231 -11 -375
-69 -307 -123 -493 -350 -540 -659 -13 -86 -14 -295 -1 -341 3 -11 10 -37 15
-59 21 -84 80 -184 171 -289 63 -73 228 -177 380 -241 92 -38 265 -75 428 -91
90 -9 305 -99 507 -213 55 -31 123 -69 150 -85 120 -67 383 -191 495 -232 304
-114 508 -145 915 -139 138 2 266 5 285 8 19 2 69 7 110 10 41 4 100 11 130
16 30 5 75 12 100 15 125 17 405 82 540 126 455 148 710 314 887 577 105 157
152 327 147 537 -3 127 -4 136 -30 224 -81 282 -353 615 -590 722 -71 32 -75
34 -166 50 -66 13 -67 4 10 139 230 400 498 657 781 749 91 30 140 36 276 36
331 -1 607 -130 769 -358 85 -121 128 -221 173 -402 12 -48 11 -314 -2 -380
-20 -108 -22 -117 -40 -165 -50 -139 -130 -252 -208 -291 -47 -25 -67 -29
-129 -30 l-47 -1 20 -39 c28 -56 95 -118 157 -147 49 -22 62 -24 160 -19 59 2
116 7 127 10 241 66 358 224 436 587 51 240 26 458 -76 659 -69 139 -167 261
-317 396 -207 187 -483 329 -758 390 -187 41 -360 113 -514 212 -201 129 -322
273 -381 451 -17 52 -23 220 -11 297 14 87 20 114 38 174 71 232 245 432 470
540 47 23 94 44 105 46 10 2 50 11 88 21 110 27 268 20 480 -21 227 -44 463
-163 612 -309 49 -48 74 -66 76 -56 3 13 -12 118 -28 194 -9 43 -68 167 -108
228 -41 61 -130 155 -202 213 -28 22 -52 43 -55 46 -12 13 -134 82 -193 109
-62 28 -169 65 -217 76 -179 38 -244 45 -435 49 -132 3 -174 0 -240 -16z
m-1155 -3633 c6 -28 13 -62 15 -76 6 -30 7 -207 1 -235 -2 -11 -7 -40 -11 -64
-9 -52 -33 -125 -65 -196 -23 -50 -101 -178 -123 -200 -7 -6 -26 -27 -42 -46
-73 -82 -185 -154 -296 -187 -53 -16 -246 -58 -399 -87 -262 -49 -482 -106
-602 -156 -40 -17 -115 -46 -165 -65 -94 -36 -178 -78 -188 -95 -30 -47 -32
64 -5 172 41 161 146 295 322 412 131 87 136 90 682 274 251 84 361 133 497
216 169 105 275 224 326 367 15 44 20 48 30 34 7 -9 17 -40 23 -68z"/>
</g>
</svg>
