<svg xmlns="http://www.w3.org/2000/svg" viewBox="0 0 176.918 176.918">
  <path stroke-width=".265" d="M104.07 106.45q-1.588 5.822-7.056 9.702-5.468 3.704-12.17 5.82-6.527 2.118-13.054 4.41-6.35 2.294-10.76 6.88-4.233 4.41-4.233 11.465 1.588-1.058 3.175-1.94 1.764-.706 3.88-1.411 2.117-.882 3.352-1.411 1.235-.53 3.88-1.235 2.647-.706 3.528-.882.882-.353 4.057-.882 3.175-.706 3.705-.706.529-.176 4.233-.882 3.704-.881 4.057-.881 6.526-1.588 10.583-7.585 4.234-5.997 4.234-13.053 0-4.41-1.412-7.408zm-77.612 37.042q-11.641-.705-19.05-6.35Q0 131.322 0 122.502q0-17.462 16.933-22.578 3.528-.882 6.174-.882 7.055 0 8.114 4.41.353 1.058.353 2.646 0 4.057-4.94 5.82-1.94-4.762-7.584-4.762-1.058 0-3.175.353-7.585 2.117-7.585 15.346 0 6.173 4.94 9.701 5.114 3.352 10.935 3.352h.353q4.057-.177 14.288-2.999 11.465-1.94 18.52-25.047 2.293-7.761 4.586-13.053 2.294-5.292 6.35-10.407 4.057-5.292 10.055-7.937 6.173-2.646 14.464-2.646h.352q3.705 0 8.643 4.586 5.116 4.586 5.116 10.054 0 3.175-1.411 5.468 3.175-.705 5.644-3.528 2.47-2.998 4.057-6.173 1.587-3.175 5.644-6.174 4.234-2.999 10.407-3.88-8.466-2.823-12.7-11.113-4.233-8.467-4.233-17.992t7.232-19.05q7.232-9.525 16.404-9.525H139.524q14.816 0 23.283 7.056 8.643 6.88 8.643 16.757-7.938-9.702-25.224-10.936-9.348.353-15.875 7.055-6.35 6.527-6.35 16.934v1.41q.177 1.06.177 1.412 1.587 6.526 8.466 11.465 6.88 4.763 13.935 6.174 12.347 2.646 21.343 11.465 8.996 8.82 8.996 19.403v1.058q-.53 4.057-1.235 7.056-.705 2.822-2.293 6.173-1.587 3.175-4.762 4.94-2.999 1.763-7.409 1.763h-1.763q-4.587-1.411-5.998-5.468.177 0 .53.176h.705q4.41 0 7.056-4.938 2.822-5.116 2.822-12.348 0-7.76-4.234-14.11-4.056-6.527-12.7-8.82-4.056-1.059-7.76-1.059-15.876 0-28.046 23.284 7.937.353 14.64 8.82 6.879 8.29 6.879 16.227v1.411q0 8.29-5.292 14.64-5.291 6.35-13.934 9.878-8.467 3.528-17.992 5.292-9.349 1.764-19.226 1.764h-2.294q-10.583 0-19.05-3.175-8.29-3.175-16.05-7.761-7.762-4.41-13.054-5.998z" aria-label="s" font-family="Ornements ADF" font-size="176.389" font-weight="400" letter-spacing="0" word-spacing="0"/>
</svg>
