<?xml version="1.0" standalone="no"?>
<!DOCTYPE svg PUBLIC "-//W3C//DTD SVG 20010904//EN"
 "http://www.w3.org/TR/2001/REC-SVG-20010904/DTD/svg10.dtd">
<svg version="1.0" xmlns="http://www.w3.org/2000/svg"
 width="700.000000pt" height="700.000000pt" viewBox="0 0 700.000000 700.000000"
 preserveAspectRatio="xMidYMid meet">
<metadata>
Created by potrace 1.11, written by Peter Selinger 2001-2013
</metadata>
<g transform="translate(0.000000,700.000000) scale(0.100000,-0.100000)"
fill="#000000" stroke="none">
<path d="M5305 6329 c-223 -54 -426 -226 -595 -503 -138 -228 -192 -420 -184
-661 8 -252 57 -443 171 -669 97 -194 251 -334 458 -417 26 -10 27 -13 10 -16
-319 -68 -510 -202 -635 -446 -41 -78 -145 -213 -199 -255 -73 -58 -181 -95
-143 -50 18 22 39 123 40 187 0 91 -23 169 -77 256 -33 54 -175 193 -242 238
-107 71 -141 81 -269 81 -227 1 -395 -33 -568 -114 -165 -77 -300 -197 -427
-375 -160 -225 -226 -372 -365 -812 -82 -258 -111 -335 -190 -498 -77 -159
-148 -262 -245 -360 -113 -113 -174 -141 -450 -210 -121 -29 -240 -57 -265
-60 -25 -4 -65 -10 -90 -15 -53 -10 -178 -5 -240 9 -251 57 -415 196 -460 390
-12 52 -9 277 4 340 60 279 191 396 431 387 123 -5 206 -51 257 -142 l23 -41
47 21 c55 25 103 68 125 111 24 46 26 153 3 216 -24 66 -50 93 -119 126 -51
24 -67 27 -181 27 -163 1 -231 -11 -375 -69 -307 -123 -493 -350 -540 -659
-13 -86 -14 -295 -1 -341 3 -11 10 -37 15 -59 21 -84 80 -184 171 -289 63 -73
228 -177 380 -241 92 -38 265 -75 428 -91 90 -9 305 -99 507 -213 55 -31 123
-69 150 -85 120 -67 383 -191 495 -232 304 -114 508 -145 915 -139 138 2 266
5 285 8 19 2 69 7 110 10 41 4 100 11 130 16 30 5 75 12 100 15 125 17 405 82
540 126 455 148 710 314 887 577 105 157 152 327 147 537 -3 127 -4 136 -30
224 -80 280 -349 610 -587 722 -36 17 -102 38 -146 46 -92 18 -91 7 -13 143
197 342 420 579 657 698 133 67 227 87 400 87 331 -1 607 -130 769 -358 85
-121 128 -221 173 -402 12 -48 11 -314 -2 -380 -20 -108 -22 -117 -40 -165
-50 -139 -130 -252 -208 -291 -46 -24 -67 -29 -124 -30 -25 -1 -43 -6 -43 -13
0 -22 59 -100 100 -132 69 -55 114 -67 232 -61 109 5 118 6 185 31 195 70 303
233 374 566 70 333 -4 621 -230 890 -46 55 -66 75 -157 160 -195 182 -488 334
-764 395 -382 84 -727 309 -850 555 -50 99 -61 149 -60 270 0 63 2 126 5 140
12 80 19 110 37 169 71 232 245 432 470 540 47 23 94 44 105 46 220 51 306 51
568 0 236 -45 490 -178 633 -329 59 -63 64 -57 45 54 -19 119 -22 130 -58 206
-65 142 -167 263 -313 374 -104 78 -301 170 -422 196 -179 38 -244 45 -435 49
-132 3 -174 0 -240 -16z m-1155 -3633 c6 -28 13 -62 15 -76 6 -30 7 -207 1
-235 -2 -11 -7 -40 -11 -64 -9 -52 -33 -125 -65 -196 -23 -50 -101 -178 -123
-200 -7 -6 -26 -27 -42 -46 -73 -82 -185 -154 -296 -187 -53 -16 -246 -58
-399 -87 -262 -49 -482 -106 -602 -156 -40 -17 -115 -46 -165 -65 -94 -36
-178 -78 -188 -95 -16 -25 -26 -4 -24 49 3 77 32 183 72 261 60 121 251 284
419 361 36 16 211 78 389 138 361 122 393 134 509 191 244 121 395 266 457
441 15 44 20 48 30 34 7 -9 17 -40 23 -68z"/>
</g>
</svg>
