<?xml version="1.0" encoding="UTF-8" standalone="no"?>
<!-- Created with Inkscape (http://www.inkscape.org/) -->

<svg
   xmlns:dc="http://purl.org/dc/elements/1.1/"
   xmlns:cc="http://creativecommons.org/ns#"
   xmlns:rdf="http://www.w3.org/1999/02/22-rdf-syntax-ns#"
   xmlns:svg="http://www.w3.org/2000/svg"
   xmlns="http://www.w3.org/2000/svg"
   xmlns:sodipodi="http://sodipodi.sourceforge.net/DTD/sodipodi-0.dtd"
   xmlns:inkscape="http://www.inkscape.org/namespaces/inkscape"
   width="176.91806mm"
   height="176.91805mm"
   viewBox="0 0 176.91806 176.91804"
   version="1.1"
   id="svg828"
   inkscape:version="0.92.2 5c3e80d, 2017-08-06"
   sodipodi:docname="leaf.svg">
  <defs
     id="defs822" />
  <sodipodi:namedview
     id="base"
     pagecolor="#ffffff"
     bordercolor="#666666"
     borderopacity="1.0"
     inkscape:pageopacity="0.0"
     inkscape:pageshadow="2"
     inkscape:zoom="0.7"
     inkscape:cx="252.48328"
     inkscape:cy="343.07344"
     inkscape:document-units="mm"
     inkscape:current-layer="text1404"
     showgrid="false"
     inkscape:window-width="1280"
     inkscape:window-height="755"
     inkscape:window-x="0"
     inkscape:window-y="1"
     inkscape:window-maximized="1"
     fit-margin-top="16.49236"
     fit-margin-left="0"
     fit-margin-right="0"
     fit-margin-bottom="16.49236" />
  <metadata
     id="metadata825">
    <rdf:RDF>
      <cc:Work
         rdf:about="">
        <dc:format>image/svg+xml</dc:format>
        <dc:type
           rdf:resource="http://purl.org/dc/dcmitype/StillImage" />
        <dc:title></dc:title>
      </cc:Work>
    </rdf:RDF>
  </metadata>
  <g
     inkscape:label="Laag 1"
     inkscape:groupmode="layer"
     id="layer1"
     transform="translate(-17.599307,-60.040968)">
    <g
       aria-label="s"
       style="font-style:normal;font-variant:normal;font-weight:normal;font-stretch:normal;font-size:3.52777767px;line-height:1.25;font-family:'Ornements ADF';-inkscape-font-specification:'Ornements ADF';font-variant-ligatures:normal;font-variant-caps:normal;font-variant-numeric:normal;font-feature-settings:normal;text-align:start;letter-spacing:0px;word-spacing:0px;writing-mode:lr-tb;text-anchor:start;fill:#000000;fill-opacity:1;stroke:none;stroke-width:0.26458332"
       id="text1404">
      <path
         d="m 121.66875,166.49166 q -1.5875,5.82083 -7.05556,9.70139 -5.46805,3.70417 -12.17083,5.82083 -6.526388,2.11667 -13.052777,4.40972 -6.35,2.29306 -10.759722,6.87917 -4.233333,4.40972 -4.233333,11.46528 1.5875,-1.05834 3.175,-1.94028 1.763889,-0.70556 3.880555,-1.41111 2.116667,-0.88195 3.351389,-1.41111 1.234723,-0.52917 3.880556,-1.23472 2.645833,-0.70556 3.527777,-0.88195 0.881945,-0.35278 4.056945,-0.88194 3.175,-0.70556 3.704166,-0.70556 0.529164,-0.17639 4.233334,-0.88194 3.70417,-0.88195 4.05694,-0.88195 6.52639,-1.5875 10.58334,-7.58472 4.23333,-5.99722 4.23333,-13.05278 0,-4.40972 -1.41111,-7.40833 z m -77.61111,37.04167 q -11.641667,-0.70556 -19.05,-6.35 -7.408333,-5.82084 -7.408333,-14.64028 0,-17.4625 16.933333,-22.57778 3.527778,-0.88194 6.173611,-0.88194 7.055555,0 8.113889,4.40972 0.352777,1.05833 0.352777,2.64583 0,4.05695 -4.938888,5.82084 -1.940278,-4.7625 -7.584722,-4.7625 -1.058334,0 -3.175,0.35277 -7.584722,2.11667 -7.584722,15.34584 0,6.17361 4.938888,9.70138 5.115278,3.35139 10.936111,3.35139 h 0.352778 q 4.056944,-0.17639 14.2875,-2.99861 11.465277,-1.94028 18.520833,-25.04722 2.293055,-7.76111 4.586111,-13.05278 2.293055,-5.29166 6.35,-10.40694 4.056944,-5.29167 10.054166,-7.9375 6.173608,-2.64583 14.463888,-2.64583 h 0.35278 q 3.70417,0 8.64305,4.58611 5.11528,4.58611 5.11528,10.05416 0,3.175 -1.41111,5.46806 3.175,-0.70556 5.64444,-3.52778 2.46945,-2.99861 4.05695,-6.17361 1.5875,-3.175 5.64444,-6.17361 4.23334,-2.99861 10.40695,-3.88056 -8.46667,-2.82222 -12.7,-11.1125 -4.23334,-8.46666 -4.23334,-17.99166 0,-9.525002 7.23195,-19.050002 7.23194,-9.525 16.40417,-9.525 h 0.17638 1.41112 q 14.81666,0 23.28333,7.055556 8.64305,6.879166 8.64305,16.756946 -7.9375,-9.701391 -25.22361,-10.936113 -9.34861,0.352778 -15.875,7.055555 -6.35,6.526388 -6.35,16.933338 0,0.35277 0,1.41111 0.17639,1.05833 0.17639,1.41111 1.5875,6.52639 8.46667,11.46528 6.87917,4.76249 13.93472,6.17361 12.34722,2.64583 21.34306,11.46527 8.99583,8.81945 8.99583,19.40278 v 1.05833 q -0.52917,4.05695 -1.23472,7.05556 -0.70556,2.82222 -2.29306,6.17361 -1.5875,3.175 -4.7625,4.93889 -2.99861,1.76389 -7.40833,1.76389 h -1.76389 q -4.58611,-1.41111 -5.99722,-5.46806 0.17639,0 0.52916,0.17639 0.52917,0 0.70556,0 4.40972,0 7.05555,-4.93889 2.82223,-5.11527 2.82223,-12.34722 0,-7.76111 -4.23334,-14.11111 -4.05694,-6.52639 -12.7,-8.81944 -4.05694,-1.05834 -7.76111,-1.05834 -15.875,0 -28.04583,23.28334 7.9375,0.35277 14.64028,8.81944 6.87916,8.29028 6.87916,16.22778 v 1.41111 q 0,8.29028 -5.29166,14.64028 -5.29167,6.35 -13.93472,9.87777 -8.46667,3.52778 -17.99167,5.29167 -9.34861,1.76389 -19.226389,1.76389 h -2.293056 q -10.583333,0 -19.049999,-3.175 -8.290278,-3.175 -16.051389,-7.76111 -7.761111,-4.40972 -13.052777,-5.99722 z"
         style="font-size:176.3888855px;stroke-width:0.26458332"
         id="path1444"
         inkscape:connector-curvature="0" />
    </g>
  </g>
</svg>
