<?xml version="1.0" standalone="no"?>
<!DOCTYPE svg PUBLIC "-//W3C//DTD SVG 20010904//EN"
 "http://www.w3.org/TR/2001/REC-SVG-20010904/DTD/svg10.dtd">
<svg version="1.0" xmlns="http://www.w3.org/2000/svg"
 width="1000.000000pt" height="1000.000000pt" viewBox="0 0 1000.000000 1000.000000"
 preserveAspectRatio="xMidYMid meet">
<metadata>
Created by potrace 1.11, written by Peter Selinger 2001-2013
</metadata>
<g transform="translate(0.000000,1000.000000) scale(0.100000,-0.100000)"
fill="#000000" stroke="none">
<path d="M7709 9066 c-2 -2 -26 -7 -54 -10 -153 -20 -315 -90 -465 -200 -78
-57 -235 -216 -312 -316 -150 -195 -271 -416 -338 -618 -41 -123 -43 -133 -65
-266 -12 -73 -13 -382 -2 -461 3 -16 8 -50 11 -75 45 -308 183 -670 334 -875
121 -165 281 -298 457 -379 38 -17 86 -39 105 -48 l35 -17 -29 0 c-76 -2 -269
-61 -401 -123 -194 -90 -385 -269 -479 -448 -163 -307 -326 -476 -513 -529
-32 -9 -32 -9 -18 12 36 56 67 188 66 282 -1 79 -19 185 -40 230 -5 11 -16 37
-26 58 -77 175 -362 436 -560 513 -63 25 -83 27 -200 28 -568 2 -1003 -177
-1310 -540 -84 -99 -83 -98 -157 -204 -209 -301 -286 -481 -528 -1235 -229
-716 -504 -1140 -842 -1299 -32 -14 -111 -40 -175 -57 -65 -16 -158 -41 -208
-54 -49 -13 -101 -26 -115 -29 -14 -3 -74 -16 -135 -30 -60 -14 -123 -27 -140
-30 -167 -25 -175 -26 -246 -27 -358 -1 -718 193 -832 449 -47 108 -57 175
-52 357 4 179 6 191 30 306 57 274 208 454 415 495 264 53 479 -28 566 -212 9
-19 22 -34 29 -34 27 0 136 64 176 103 65 65 92 134 91 231 -3 265 -153 387
-475 387 -40 -1 -86 -3 -102 -5 -17 -2 -50 -7 -75 -10 -262 -31 -592 -189
-774 -370 -93 -92 -112 -116 -170 -208 -77 -125 -144 -308 -161 -438 -4 -30
-10 -59 -13 -64 -13 -21 -10 -346 4 -417 63 -331 274 -595 625 -781 110 -59
309 -132 418 -154 12 -3 51 -11 85 -19 34 -8 84 -17 111 -20 28 -3 61 -7 75
-10 14 -2 57 -7 95 -10 39 -3 99 -15 135 -27 153 -49 439 -184 662 -312 297
-170 529 -285 793 -393 236 -97 477 -166 652 -188 13 -2 40 -6 60 -9 161 -24
274 -30 578 -30 332 0 504 8 715 35 41 5 98 11 125 14 28 3 61 8 75 10 41 8
62 12 113 19 27 4 59 9 70 12 12 2 33 6 47 9 45 9 67 13 166 35 55 12 106 23
114 25 157 34 505 147 706 230 600 246 1008 683 1080 1155 2 14 8 51 12 82 10
64 8 330 -2 393 -28 166 -84 314 -183 484 -44 75 -155 234 -183 261 -3 3 -27
32 -55 65 -42 51 -159 169 -210 213 -113 97 -309 193 -445 218 -25 4 -48 9
-52 10 -5 1 -24 2 -44 3 l-36 1 48 88 c298 548 664 947 1019 1111 58 27 166
68 202 76 10 3 36 9 58 14 79 19 112 22 230 26 319 9 648 -82 893 -247 260
-175 467 -533 520 -898 9 -63 9 -373 -1 -440 -39 -283 -141 -515 -281 -643
-74 -67 -185 -107 -284 -100 -40 2 -43 1 -36 -20 9 -30 66 -116 99 -150 39
-40 120 -90 185 -114 44 -16 74 -19 156 -17 355 12 580 156 708 454 15 36 31
74 36 85 39 92 86 286 118 495 9 55 8 277 -2 343 -61 447 -383 889 -886 1220
-84 55 -262 148 -395 207 -63 28 -247 85 -393 121 -273 68 -372 103 -552 198
-405 212 -655 479 -735 786 -18 70 -18 308 1 422 49 305 159 528 359 728 242
243 556 380 870 380 72 0 180 -9 245 -20 14 -2 41 -6 60 -9 19 -3 46 -8 60
-11 14 -2 50 -10 80 -16 72 -14 238 -62 320 -93 229 -85 435 -216 594 -380
l79 -81 -6 80 c-20 284 -130 517 -347 736 -58 58 -136 129 -175 157 -38 29
-75 55 -80 60 -35 29 -211 121 -310 162 -104 43 -305 95 -437 115 -21 3 -53 7
-70 10 -18 3 -55 7 -83 10 -64 7 -471 16 -476 11z m-1783 -5206 c8 -30 17 -75
20 -100 3 -25 8 -54 10 -65 6 -28 5 -189 -1 -260 -25 -281 -163 -565 -380
-780 -160 -159 -283 -220 -560 -279 -93 -20 -181 -39 -195 -42 -14 -3 -36 -8
-50 -11 -14 -3 -29 -6 -35 -7 -5 -2 -28 -6 -50 -10 -22 -4 -96 -19 -165 -33
-69 -14 -138 -27 -155 -29 -42 -7 -290 -70 -414 -106 -93 -26 -175 -57 -306
-114 -22 -10 -44 -19 -50 -20 -58 -13 -222 -84 -295 -128 l-92 -56 6 87 c15
185 61 322 156 463 55 81 212 226 326 302 184 122 249 149 829 343 520 174
633 222 860 358 120 72 179 118 264 206 100 103 175 226 216 350 l18 54 14
-34 c8 -19 21 -59 29 -89z"/>
</g>
</svg>
